<?xml version="1.0" encoding="utf-8"?>
<!-- Generator: Adobe Illustrator 21.1.0, SVG Export Plug-In . SVG Version: 6.00 Build 0)  -->
<svg version="1.1" id="Layer_1" xmlns="http://www.w3.org/2000/svg" xmlns:xlink="http://www.w3.org/1999/xlink" x="0px" y="0px"
	 viewBox="0 0 453.4 114.9" style="enable-background:new 0 0 453.4 114.9;" xml:space="preserve">
<style type="text/css">
	.st0{fill:#FFFFFF;}
</style>
<g>
	<path class="st0" d="M65.5,58.1c9.3-2,18.1-4,25.1-4c5.2,0,9,2,10.8,5.9c2.4,5.1,1.3,12.8-2.7,20.4c-0.1-0.1-0.1-0.2-0.2-0.2
		c-4.7-6.3-22.2-1.4-32.2,2c0,0,0,0,0,0C55.1,85.9,44.9,88.2,36,89c-5.6,0-9.1-1.4-10.5-4.1c-2.2-4.2,0.5-12.3,7.4-22.1
		C43.2,63,54.5,60.5,65.5,58.1z M0.2,64.3C1.9,47.4,22,25.1,39.6,14.8c0.7-0.4,1.1-1.2,1-2c-0.1-0.8-0.7-1.5-1.5-1.7
		c-3.8-1-7.4-1.8-10.8-2.4c18.3-5.6,44-10,57.3-8.4c-2.9,12.8-13.8,29.8-29.4,45.9c0.5-3.2,0.8-6.6,0.9-10c0-0.8-0.4-1.5-1.1-1.9
		c-0.7-0.3-1.6-0.2-2.2,0.3C44.9,42,36.3,51.1,30.2,59.7c0,0,0,0,0,0l0,0c-5.9,8.3-12.1,19.7-8.3,27.1c0.4,0.8,1,1.6,1.6,2.3
		c-7.9-0.8-14.1-3.3-18.1-7.4C1.3,77.4-0.6,71.4,0.2,64.3z M89.2,92.9c-8.9,8.6-28.1,18.7-50.8,21.8c-2.8,0.4-4.1-0.3-4.1-0.5
		c-0.1-0.3,0.6-1.8,3.8-3.6c11.8-6.5,22.4-15.3,30-24.8c8.5-2.9,24.3-7,27.2-3.3c0.7,1,0,3.1-1.8,5.7c0,0,0,0,0,0c0,0,0,0-0.1,0.1
		C92.2,89.8,90.8,91.3,89.2,92.9z"/>
	<g>
		<path class="st0" d="M132.9,72l2.3-3.8c4.8,5,13.7,8.8,23.1,8.8c14,0,20.2-6.1,20.2-13.7c0-21-43.7-8.4-43.7-34.2
			c0-9.9,7.6-18.6,24.8-18.6c7.7,0,15.7,2.4,21.1,6.3l-1.9,4.1c-5.8-4-12.9-5.9-19.2-5.9c-13.6,0-19.7,6.3-19.7,14
			c0,21,43.7,8.6,43.7,34c0,9.9-7.9,18.5-25.2,18.5C148,81.5,138,77.6,132.9,72z"/>
		<path class="st0" d="M225.2,77.7c-2.6,2.5-6.8,3.7-10.7,3.7c-9.2,0-14.2-5.4-14.2-14.2V33.1h-9.6v-4.3h9.6V17.4h5v11.4h16.6v4.3
			h-16.6v33.6c0,6.7,3.3,10.4,9.7,10.4c3.1,0,6-1,8.1-2.9L225.2,77.7z"/>
		<path class="st0" d="M276.8,47.9V81H272v-9.3c-3.3,6-9.7,9.7-18.8,9.7c-11.7,0-18.8-6-18.8-14.9c0-7.9,5-14.6,19.5-14.6h17.9v-4.2
			c0-9.7-5.3-14.9-15.5-14.9c-7.2,0-13.7,2.7-18,6.6l-2.5-3.6c5.2-4.6,12.8-7.4,20.9-7.4C269.6,28.4,276.8,35,276.8,47.9z
			 M271.8,65.6v-9.8H254c-10.8,0-14.6,4.5-14.6,10.5c0,6.8,5.3,11,14.5,11C262.7,77.3,268.8,73.1,271.8,65.6z"/>
		<path class="st0" d="M289.7,74.7l2.3-4c4,3.4,11.1,6.3,18.8,6.3c11,0,15.4-3.9,15.4-9.8c0-15.2-34.6-4-34.6-24.5
			c0-7.9,6.6-14.3,19.8-14.3c6.6,0,13.8,2,17.9,5.1l-2.3,4c-4.4-3.2-10.1-4.7-15.7-4.7c-10.2,0-14.7,4.2-14.7,9.8
			c0,15.7,34.6,4.6,34.6,24.5c0,8.5-7.3,14.3-20.6,14.3C302,81.4,293.8,78.5,289.7,74.7z"/>
		<path class="st0" d="M391.9,50.5V81h-5V50.9c0-11.8-6.3-18-16.9-18c-12.3,0-19.8,7.9-19.8,20.3V81h-5V6.8h5v32.9
			c3.6-7.1,10.8-11.3,20.5-11.3C383.4,28.4,391.9,35.9,391.9,50.5z"/>
		<path class="st0" d="M453.4,28.8l-26.8,59.3c-4.2,9.6-9.4,12.7-16.3,12.7c-4.7,0-9.1-1.6-12.1-4.7l2.5-3.8
			c2.7,2.8,5.8,4.1,9.7,4.1c4.8,0,8.3-2.2,11.5-9.3l2.8-6.3l-23.5-52h5.3l20.9,46.7l20.9-46.7H453.4z"/>
	</g>
</g>
</svg>
