<?xml version="1.0" encoding="utf-8"?>
<!-- Generator: Adobe Illustrator 21.1.0, SVG Export Plug-In . SVG Version: 6.00 Build 0)  -->
<svg version="1.1" id="Layer_1" xmlns="http://www.w3.org/2000/svg" xmlns:xlink="http://www.w3.org/1999/xlink" x="0px" y="0px"
	 viewBox="0 0 381.6 114.9" style="enable-background:new 0 0 381.6 114.9;" xml:space="preserve">
<style type="text/css">
	.st0{fill:#FFFFFF;}
</style>
<path class="st0" d="M65.5,58.1c9.3-2,18.1-4,25.1-4c5.2,0,9,2,10.8,5.9c2.4,5.1,1.3,12.8-2.7,20.4c-0.1-0.1-0.1-0.2-0.2-0.2
	c-4.7-6.3-22.2-1.4-32.2,2c0,0,0,0,0,0C55.1,85.9,44.9,88.2,36,89c-5.6,0-9.1-1.4-10.5-4.1c-2.2-4.2,0.5-12.3,7.4-22.1
	C43.2,63,54.5,60.5,65.5,58.1z M0.2,64.3C1.9,47.4,22,25.1,39.6,14.8c0.7-0.4,1.1-1.2,1-2c-0.1-0.8-0.7-1.5-1.5-1.7
	c-3.8-1-7.4-1.8-10.8-2.4c18.3-5.6,44-10,57.3-8.4c-2.9,12.8-13.8,29.8-29.4,45.9c0.5-3.2,0.8-6.6,0.9-10c0-0.8-0.4-1.5-1.1-1.9
	c-0.7-0.3-1.6-0.2-2.2,0.3C44.9,42,36.3,51.1,30.2,59.7c0,0,0,0,0,0l0,0c-5.9,8.3-12.1,19.7-8.3,27.1c0.4,0.8,1,1.6,1.6,2.3
	c-7.9-0.8-14.1-3.3-18.1-7.4C1.3,77.4-0.6,71.4,0.2,64.3z M89.2,92.9c-8.9,8.6-28.1,18.7-50.8,21.8c-2.8,0.4-4.1-0.3-4.1-0.5
	c-0.1-0.3,0.6-1.8,3.8-3.6c11.8-6.5,22.4-15.3,30-24.8c8.5-2.9,24.3-7,27.2-3.3c0.7,1,0,3.1-1.8,5.7c0,0,0,0,0,0c0,0,0,0-0.1,0.1
	C92.2,89.8,90.8,91.3,89.2,92.9z"/>
<g>
	<path class="st0" d="M160.7,43.6l-3.8,3.9c-3.2-3.1-6.3-4.6-9.3-4.6c-1.9,0-3.6,0.6-5,1.9c-1.4,1.3-2.1,2.8-2.1,4.5
		c0,1.5,0.6,2.9,1.7,4.2c1.1,1.4,3.5,3.1,7.1,4.9c4.4,2.3,7.4,4.5,9,6.6c1.5,2.2,2.3,4.6,2.3,7.3c0,3.8-1.3,6.9-4,9.6
		c-2.6,2.6-6,3.9-9.9,3.9c-2.7,0-5.2-0.6-7.6-1.7c-2.4-1.1-4.4-2.7-6-4.8l3.7-4.2c3,3.4,6.2,5.1,9.6,5.1c2.4,0,4.4-0.8,6-2.3
		c1.7-1.5,2.5-3.3,2.5-5.4c0-1.7-0.5-3.2-1.6-4.5c-1.1-1.3-3.6-3-7.4-5c-4.2-2.1-7-4.2-8.5-6.3c-1.5-2.1-2.3-4.5-2.3-7.1
		c0-3.5,1.2-6.4,3.6-8.7s5.4-3.5,9-3.5C152.1,37.4,156.4,39.5,160.7,43.6z"/>
	<path class="st0" d="M189.6,84.2c-3.1,1.2-5.8,1.7-8.2,1.6c-4.5-0.3-8.1-2.6-10.8-7.1c-1.6-2.8-2.4-5.9-2.3-9.2V21.7h6v22.3h11V49
		h-10.9v19.5c-0.2,4.8,1.5,8.5,4.9,11.1c2.8,1.3,5.7,1.2,8.6-0.4C188.5,81.4,189.1,83,189.6,84.2z"/>
	<path class="st0" d="M220.8,37.4c7.1,0,13,2.6,17.6,7.7c4.3,4.7,6.5,10.2,6.5,16.7c0.1,15.9,0.1,24,0,24.2c-2.7,0-4.8,0-6.3,0
		c0-0.2,0-3.7,0-10.5c-3.3,6.1-9.2,9.5-17.8,10.2c-7.1,0-12.8-2.4-17.3-7.2c-4.5-4.8-6.7-10.4-6.7-16.8c0-6.4,2.1-11.9,6.3-16.6
		C207.8,40,213.7,37.4,220.8,37.4z M220.8,43.2c-4.9,0-9.1,1.8-12.6,5.5c-3.5,3.6-5.3,8-5.3,13.2c0,3.3,0.9,6.5,2.7,9.6
		c1.8,3.1,4.9,5.7,9.2,7.8c10.8,2.4,18.5-2.5,23.1-14.7c0.3-3.9-0.2-7.7-1.3-11.3c-0.8-1.6-1.9-3.2-3.2-4.6
		C229.9,45,225.7,43.2,220.8,43.2z"/>
	<path class="st0" d="M279.6,43.6l-3.8,3.9c-3.2-3.1-6.3-4.6-9.3-4.6c-1.9,0-3.6,0.6-5,1.9c-1.4,1.3-2.1,2.8-2.1,4.5
		c0,1.5,0.6,2.9,1.7,4.2c1.1,1.4,3.5,3.1,7.1,4.9c4.4,2.3,7.4,4.5,9,6.6c1.5,2.2,2.3,4.6,2.3,7.3c0,3.8-1.3,6.9-4,9.6
		c-2.6,2.6-6,3.9-9.9,3.9c-2.7,0-5.2-0.6-7.6-1.7c-2.4-1.1-4.4-2.7-6-4.8l3.7-4.2c3,3.4,6.2,5.1,9.6,5.1c2.4,0,4.4-0.8,6-2.3
		c1.7-1.5,2.5-3.3,2.5-5.4c0-1.7-0.5-3.2-1.6-4.5c-1.1-1.3-3.6-3-7.4-5c-4.2-2.1-7-4.2-8.5-6.3c-1.5-2.1-2.3-4.5-2.3-7.1
		c0-3.5,1.2-6.4,3.6-8.7c2.4-2.3,5.4-3.5,9-3.5C271,37.4,275.2,39.5,279.6,43.6z"/>
	<path class="st0" d="M290,22h6v26.1c2.4-3.2,5-5.5,7.9-7.1c2.9-1.6,6-2.4,9.3-2.4c3.5,0,6.5,0.9,9.2,2.6c2.7,1.8,4.6,4.1,5.9,7
		s1.9,7.6,1.9,13.9v23.7h-5.9v-22c0-5.3-0.2-8.9-0.7-10.7c-0.7-3.1-2.1-5.3-4-6.9c-1.9-1.5-4.5-2.3-7.6-2.3c-3.6,0-6.8,1.2-9.6,3.5
		c-2.8,2.4-4.7,5.3-5.6,8.8c-0.5,2.2-0.8,6.4-0.8,12.6v16.9h-6V22z"/>
	<path class="st0" d="M337.8,38.6h6.3l15.8,35.5l15.4-35.5h6.3l-27.5,62.9h-6.3l8.9-20.3L337.8,38.6z"/>
</g>
</svg>
