<?xml version="1.0" encoding="utf-8"?>
<!-- Generator: Adobe Illustrator 21.1.0, SVG Export Plug-In . SVG Version: 6.00 Build 0)  -->
<svg version="1.1" id="Layer_1" xmlns="http://www.w3.org/2000/svg" xmlns:xlink="http://www.w3.org/1999/xlink" x="0px" y="0px"
	 viewBox="0 0 102.6 114.9" style="enable-background:new 0 0 102.6 114.9;" xml:space="preserve">
<style type="text/css">
	.st0{fill:#FFFFFF;}
</style>
<path class="st0" d="M65.5,58.1c9.3-2,18.1-4,25.1-4c5.2,0,9,2,10.8,5.9c2.4,5.1,1.3,12.8-2.7,20.4c-0.1-0.1-0.1-0.2-0.2-0.2
	c-4.7-6.3-22.2-1.4-32.2,2c0,0,0,0,0,0C55.1,85.9,44.9,88.2,36,89c-5.6,0-9.1-1.4-10.5-4.1c-2.2-4.2,0.5-12.3,7.4-22.1
	C43.2,63,54.5,60.5,65.5,58.1z M0.2,64.3C1.9,47.4,22,25.1,39.6,14.8c0.7-0.4,1.1-1.2,1-2c-0.1-0.8-0.7-1.5-1.5-1.7
	c-3.8-1-7.4-1.8-10.8-2.4c18.3-5.6,44-10,57.3-8.4c-2.9,12.8-13.8,29.8-29.4,45.9c0.5-3.2,0.8-6.6,0.9-10c0-0.8-0.4-1.5-1.1-1.9
	c-0.7-0.3-1.6-0.2-2.2,0.3C44.9,42,36.3,51.1,30.2,59.7c0,0,0,0,0,0l0,0c-5.9,8.3-12.1,19.7-8.3,27.1c0.4,0.8,1,1.6,1.6,2.3
	c-7.9-0.8-14.1-3.3-18.1-7.4C1.3,77.4-0.6,71.4,0.2,64.3z M89.2,92.9c-8.9,8.6-28.1,18.7-50.8,21.8c-2.8,0.4-4.1-0.3-4.1-0.5
	c-0.1-0.3,0.6-1.8,3.8-3.6c11.8-6.5,22.4-15.3,30-24.8c8.5-2.9,24.3-7,27.2-3.3c0.7,1,0,3.1-1.8,5.7c0,0,0,0,0,0c0,0,0,0-0.1,0.1
	C92.2,89.8,90.8,91.3,89.2,92.9z"/>
</svg>
