<?xml version="1.0" standalone="no"?>
<!DOCTYPE svg PUBLIC "-//W3C//DTD SVG 20010904//EN"
 "http://www.w3.org/TR/2001/REC-SVG-20010904/DTD/svg10.dtd">
<svg version="1.0" xmlns="http://www.w3.org/2000/svg"
 width="500.000000pt" height="500.000000pt" viewBox="0 0 500.000000 500.000000"
 preserveAspectRatio="xMidYMid meet">
<metadata>
Created by potrace 1.11, written by Peter Selinger 2001-2013
</metadata>
<g transform="translate(0.000000,500.000000) scale(0.100000,-0.100000)"
fill="#000000" stroke="none">
<path d="M0 2500 l0 -2500 2500 0 2500 0 0 2500 0 2500 -2500 0 -2500 0 0
-2500z m3566 1788 c13 -14 -65 -232 -134 -373 -117 -239 -265 -463 -477 -722
-131 -160 -308 -347 -301 -318 3 11 10 84 17 162 10 128 10 145 -5 168 -29 45
-63 34 -162 -52 -128 -110 -384 -370 -489 -496 -303 -365 -467 -680 -467 -902
-1 -86 12 -136 51 -197 l30 -47 -32 5 c-209 35 -324 74 -434 147 -123 83 -209
205 -247 353 -23 91 -21 277 4 384 106 441 551 995 1093 1361 124 84 142 99
145 125 2 20 -4 36 -16 47 -17 16 -292 87 -337 87 -46 0 11 21 170 64 379 101
771 173 1116 205 111 10 464 9 475 -1z m266 -1689 c131 -28 212 -102 253 -231
32 -101 32 -174 1 -303 -23 -92 -91 -275 -103 -275 -3 0 -21 13 -39 30 -50 43
-130 64 -249 63 -177 -1 -370 -41 -693 -144 -552 -176 -940 -248 -1132 -208
-149 31 -208 107 -197 258 8 123 72 276 196 469 l51 79 152 6 c230 10 378 34
898 147 517 112 723 138 862 109z m12 -857 c131 -76 -134 -387 -528 -617 -286
-167 -652 -304 -1006 -375 -381 -77 -445 -37 -185 115 141 82 293 184 415 279
118 92 356 318 431 411 48 59 55 64 132 89 176 55 338 92 532 120 60 9 178 -4
209 -22z"/>
</g>
</svg>
