<svg id="Layer_1" data-name="Layer 1" xmlns="http://www.w3.org/2000/svg" viewBox="0 0 208.01 73.52"><defs><style>.cls-1{fill:#fff;}</style></defs><title>Artboard 1</title><path class="cls-1" d="M22.54,35.21C25.27,38.09,28,41,28,44.28c0,6.41-5.33,10.08-14.62,10.08C3.82,54.36,0,49.76,0,45.22s2.88-8.71,5.33-8.71c4.54,0,.36,11.3,13.61,11.3C16.56,40.47,7.63,38.24,7.63,30c0-7.13,6.12-11.16,12.46-11.16s9.5,2.74,9.5,6.55A9.88,9.88,0,0,1,22.54,35.21Zm-2.81-3c1.3-1.44,2.88-3.46,2.88-5,0-1.15-.72-2.23-2.81-2.23a16.71,16.71,0,0,0-3.46.72C16.35,28,17.79,30.17,19.73,32.26Z"/><path class="cls-1" d="M37.51,19.59C39.53,13.1,42,8.5,44.57,8.5c3.1,0,4,2.81,4.68,5.83l-3,5.18c3.31.07,5.54.14,7.13.14.72,0,.79.29.79,1.15s-.94,5-2,5-5.11-.36-7.2-.36a112.93,112.93,0,0,0-1.51,15.34c0,3,.5,5,1.66,5,1.73,0,7.85-3.6,10.15-6.62,1.08-1.44,2-2.09,2.59-2.09s1,.86,1,2.52C58.9,45.8,48.67,54,40.82,54c-4.75,0-6.7-6.26-6.7-14.11a66.23,66.23,0,0,1,1.73-14.11H32.62c-.58,0-.86-.29-.86-.72a6.78,6.78,0,0,1,1.87-5.4C34.56,19.66,35.93,19.66,37.51,19.59Z"/><path class="cls-1" d="M81.22,20.52c.65-1.3,1.44-2.09,2.45-2.09,3,0,6.91,4,6.91,6.34a46.64,46.64,0,0,1-3,5.69A52.1,52.1,0,0,0,87,39.82c0,3.31.43,5.9,1.51,5.9,3,0,9.65-8.93,10.94-8.93.72,0,1.3,1.08,1.3,2.74,0,6.26-9,14.47-16.56,14.47-2.74,0-4.32-2.74-5.11-6.7-2.52,4.1-6.26,7.06-12.89,7.06S54.93,49.9,54.93,43a25.4,25.4,0,0,1,5.33-15.91c3.31-4,8.5-7.7,14.47-7.7a23.11,23.11,0,0,1,4.32.43A8.34,8.34,0,0,1,81.22,20.52ZM78.55,38.09A77,77,0,0,1,80,24.27c-7,1.3-14.47,7.13-14.47,16.85,0,2.81.86,5.54,4.1,5.54S76.82,44.21,78.55,38.09Z"/><path class="cls-1" d="M116.13,35.21c2.74,2.88,5.47,5.83,5.47,9.07,0,6.41-5.33,10.08-14.62,10.08-9.58,0-13.39-4.61-13.39-9.15s2.88-8.71,5.33-8.71c4.54,0,.36,11.3,13.61,11.3-2.38-7.34-11.31-9.58-11.31-17.79,0-7.13,6.12-11.16,12.46-11.16s9.5,2.74,9.5,6.55A9.88,9.88,0,0,1,116.13,35.21Zm-2.81-3c1.3-1.44,2.88-3.46,2.88-5,0-1.15-.72-2.23-2.81-2.23a16.71,16.71,0,0,0-3.46.72C109.94,28,111.38,30.17,113.33,32.26Z"/><path class="cls-1" d="M147.81,44.79c0-7.56,2.23-10.94,2.23-15.19,0-1.51-.72-2.59-3.24-2.59-4,0-8.57,8.42-9.5,14.33.22,2.23.43,4.54.43,6.41,0,2.3-.58,4.25-2.52,5.33-1.51.86-2.88,1.8-4.46,1.8-2,0-3.6-2.59-3.6-7,0-12,.43-24.77,11.31-45.94A3.2,3.2,0,0,1,141.33,0c3,0,4.39,5.4,4.39,7.06,0,5.18-3.1,8.64-5.83,13.9l-1.08,5.18c2.16-3.6,5.76-6.84,11.38-6.84,6.48,0,9.94,3.17,9.94,8.28,0,7-3,14.11-3,16.92,0,.79.22,1.22.79,1.22,2.81,0,9.22-8.71,10.58-8.71.72,0,1,.86,1,2.52,0,6.26-8.06,14.47-15.91,14.47C149,54,147.81,49.61,147.81,44.79Z"/><path class="cls-1" d="M179.13,25.78c0,5.69-3.38,10.66-3.38,17.43,0,1.51.72,2.59,3.24,2.59,3.74,0,5.4-3,6.7-6.77,1.51-6.48,4.68-17.21,5.47-19.15a3,3,0,0,1,2.81-2c2.88,0,5.54,5.4,5.54,7.13,0,3.82-3.24,15.7-6.19,25.42C201.67,44.14,205.2,37,207,37c.72,0,1,.86,1,2.52,0,5.54-7.49,15.27-17.5,19.8-2.3,7.7-4.54,14.19-15,14.19-6.19,0-11.45-4.18-11.45-9.58,0-6.19,8.86-6.62,19.8-9.22.5-2,1-4.1,1.37-6.19a11.3,11.3,0,0,1-9.65,5c-6.48,0-10.73-2.66-10.73-8.57,0-2.45.72-4.32,2.3-7.34l2.09-17.07a10.69,10.69,0,0,1,6-1.73C178.7,18.79,179.13,22.11,179.13,25.78Zm2.45,36.29c-6.84,1.37-10.87,1-10.87,2.74,0,2.09,3,3.17,4.75,3.17C178,68,180,65.6,181.58,62.07Z"/></svg>